<svg width="200" height="200" viewBox="0 0 200 200" fill="none" xmlns="http://www.w3.org/2000/svg">
<g clip-path="url(#clip0_260_130)">
<path d="M37.8458 159.088C29.077 150.242 23.2186 139.207 19.3604 127.2C20.636 126.399 21.7473 126.427 22.6344 125.988C39.4606 117.66 56.8417 116.106 74.8147 121.674C80.191 123.34 85.569 125.001 91.1917 126.946C93.8797 128.263 96.3145 129.315 98.7658 130.327C120.632 139.355 142.829 141.447 165.337 132.976C171.374 130.704 176.531 127.524 182.39 124.78C182.263 125.101 182.192 125.422 182.1 125.744C181.998 126.105 181.917 126.466 181.78 126.828C181.626 127.236 181.532 127.645 181.36 128.055C181.181 128.482 181.082 128.911 180.9 129.339C180.638 129.957 180.425 130.575 180.2 131.196C179.911 131.994 179.686 132.796 179.22 133.6C178.924 134.287 178.642 134.865 178.4 135.5C177.925 136.749 177.5 137.5 176.5 139.5C176.28 140.023 176.54 139.5 175.74 140.902C175.729 140.922 175.74 140.902 175.45 141.419C175.338 141.564 175.223 141.847 175.12 142C174.992 142.191 175.12 142 174.86 142.47C149.677 141.271 126.735 145.536 104.296 155.845C88.342 163.175 71.6113 165.958 54.1446 162.968C49.0744 162.101 44.045 160.994 38.997 159.997C38.997 159.997 38.6421 159.707 38.5004 159.5C38.0678 159.127 38.1366 159.253 37.8458 159.088Z" fill="#59569E"/>
<path d="M16.4805 83.9711C17.5005 77.5 19.5005 71.5 22.3705 65.0309L22.9405 63.78L24.5005 63C28.3539 61.6635 31.5386 61.1863 35.0771 59.8125C54.0377 52.4515 73.4279 52.8983 93.0231 56.499C110.75 59.7564 128.608 62.7256 146.255 56.7846C153.518 54.3394 160.482 49.8788 167.43 46.5C177.281 57.8606 182.844 71.4889 185 86.5C182.294 85.2105 179.933 83.4709 177.512 82.0272C161.786 72.6522 145.007 68.4218 126.577 70.7142C108.75 72.9316 93.0418 81.1179 76.5005 88C71.4256 87.5464 67.0201 86.4016 62.4153 85.9828C51.6659 85.005 41.2629 86.9773 30.6854 90.0436C25.8808 87.9453 20.9284 85.9582 16.4805 83.9711Z" fill="#F67C88"/>
<path d="M167.43 46.4906C160.606 50.1816 153.518 54.3393 146.255 56.7845C128.608 62.7254 110.75 59.7562 93.0231 56.4989C73.4278 52.8981 54.0376 52.4513 35.077 59.8124C31.5385 61.1861 26.8933 62.4879 22.9404 63.7828C28.0004 53.5 32.0004 47.5 40.2404 39C47.9889 39.8538 56.8262 42.2334 63.6781 41.4388C72.6155 40.4025 81.521 37.6093 89.9969 34.4007C104.95 28.7401 121.081 21.785 137.57 22.4999C148.5 27.5 159.5 36.5 167.43 46.4906Z" fill="#FB9F95"/>
<path d="M39 160C43.9298 160.683 49.074 162.101 54.1442 162.968C71.611 165.958 88.3417 163.175 104.296 155.845C126.734 145.536 149.847 140.949 174.86 142.47C157.631 172.082 132.347 186.78 98 186C75.2868 185.484 54.9685 176.928 39 160Z" fill="#39477E"/>
<path d="M30.5003 90C40.7212 86.8224 51.6658 85.005 62.4151 85.9828C67.02 86.4016 71.2197 87.1047 76.5003 88C81.2711 89.681 85.7894 91.1179 89.7627 92.8062C100.92 97.5472 112.003 102.465 122.973 107.61C117.682 110.879 112.512 113.816 107.389 116.831C101.885 120.07 96.4793 123.719 91.0003 127C85.6231 125.337 80.191 123.34 74.8147 121.674C56.8417 116.106 39.4606 117.66 22.6344 125.988C21.7473 126.427 20.6401 126.744 19.3603 127.196C17.5003 121.5 16.0975 115.018 15.6348 111.5C14.9408 106.224 15.0003 104.5 15.0003 99C25.0003 94 25.0003 93.5 30.5003 90Z" fill="#D24CA3"/>
<path d="M186 101.5C186 101.5 155.665 96.1794 140.139 101.233C134.652 103.019 128.297 105.942 122.5 108C111.009 103.213 100.92 97.5473 89.7624 92.8063C85.7891 91.1179 80.8605 89.6785 76.5 88C92.3427 80.8926 108.749 72.9317 126.577 70.7142C145.006 68.4218 161.786 72.6523 177.511 82.0273C179.933 83.4709 182.331 84.7926 185 86.5L185.3 89L185.45 90.25L185.59 91.5L185.735 93.25L185.85 95L185.92 96.5L186 99V101.5Z" fill="#F25192"/>
<path d="M137.57 22.5001C121.297 22.0709 104.95 28.7402 89.9967 34.4009C81.5209 37.6095 72.6153 40.4026 63.6779 41.439C56.826 42.2335 47.6857 39.982 40.2402 39C57.0002 22.5 75.5002 15.3811 96.4002 14.2001C111 13.3751 125.5 16.5 137.57 22.5001Z" fill="#F9C195"/>
<path d="M30.685 90.0436C25.9317 93.3085 15.5 99 15 99C15 93.5 15.5 89.5 16.48 83.97C21.1334 85.6201 25.8804 87.9453 30.685 90.0436Z" fill="#EC508F"/>
<path d="M91.1914 126.946C96.425 123.383 101.885 120.07 107.389 116.831C112.512 113.816 117.33 110.83 123 107.5C128.939 105.145 134.652 103.019 140.139 101.233C155.665 96.1794 186 101.5 186 101.5L185.92 103.75L185.8 106C185.6 109.607 185 113.214 185 113.214C184.814 114.301 184.606 115.406 184.42 116.5C184.188 117.867 184.05 118.5 183.55 120.5C183.449 121.102 183.12 122.254 183.12 122.254C183.08 122.351 183.11 122.318 182.88 123.073C182.821 123.332 182.73 123.625 182.67 123.914C182.629 124.115 182.48 124.5 182.48 124.5C182.464 124.585 182.39 124.78 182.39 124.78C182.39 124.78 182.137 124.931 182 125C175.951 128.058 171.374 130.704 165.336 132.976C142.829 141.447 120.632 139.355 98.7655 130.327C96.3142 129.315 93.8794 128.263 91.1914 126.946Z" fill="#9A50A5"/>
</g>
<defs>
<clipPath id="clip0_260_130">
<rect width="200" height="200" fill="white"/>
</clipPath>
</defs>
</svg>
